<?xml version="1.0" encoding="utf-8"?>
<!-- Generator: Adobe Illustrator 16.0.0, SVG Export Plug-In . SVG Version: 6.00 Build 0)  -->
<!DOCTYPE svg PUBLIC "-//W3C//DTD SVG 1.1//EN" "http://www.w3.org/Graphics/SVG/1.1/DTD/svg11.dtd">
<svg version="1.1" id="Layer_1" xmlns="http://www.w3.org/2000/svg" xmlns:xlink="http://www.w3.org/1999/xlink" x="0px" y="0px"
	 width="612px" height="792px" viewBox="0 0 612 792" enable-background="new 0 0 612 792" xml:space="preserve">
<g>
	<g>
		<path d="M502.452,141.23c-0.098-4.902-3.445-7.674-7.167-9.045L319.439,86.273c-4.137-1.034-8.537-2.222-12.656-2.222
			c-4.137,0-8.048,0.888-11.561,2.552l-4.284,2.479l-168.263,97.743c-0.557,0.373-1.095,0.777-1.634,1.181
			c-26.261,17.313-30.955,35.777-30.955,56.377v193.6c0,9.878,5.251,18.531,13.14,23.311l0.184,0.116l169.285,97.663
			c1.836,1.114,4.009,1.757,6.31,1.757c6.72,0,12.172-5.44,12.172-12.13V352.897c0-9.395-4.768-17.668-12.007-22.571l-3.782-2.148
			l-137.198-77.369c-10.557-6.236-11.505-18.439-8.348-25.765c4.547-10.471,15.698-12.491,23.452-10.6l142.767,36.573
			c4.804,1.108,8.256,2.105,12.583,2.105c4.376,0,8.513-1.016,12.191-2.846l2.448-1.389l171.843-96.91
			C498.254,149.792,502.562,146.096,502.452,141.23z M511.969,212.351l-42.326-23.287l-33.88,19.627c0,0,38.855,21.42,45.404,25.857
			c7.925,5.361,4.804,13.244-0.429,16.188l-137.29,77.448l-3.728,2.093c-0.018,0.019-0.042,0.037-0.061,0.055
			c-7.259,4.902-12.002,13.17-12.002,22.57v195.792c0,6.695,5.435,12.13,12.148,12.13c2.1,0,4.082-0.539,5.809-1.476
			c0.165-0.079,0.336-0.171,0.501-0.281l169.225-97.633l0.238-0.141c7.871-4.773,13.134-13.427,13.134-23.311V244.389
			C528.726,227.498,524.533,219.419,511.969,212.351z"/>
	</g>
</g>
</svg>
