<svg xmlns="http://www.w3.org/2000/svg" xmlns:xlink="http://www.w3.org/1999/xlink" version="1.1" x="0px" y="0px" viewBox="0 0 1000 1250" enable-background="new 0 0 1000 1000" xml:space="preserve"><path d="M772.9,226.2C699.9,153.3,603,113.1,499.8,113.1s-200.1,40.2-273.1,113.1c-72.9,72.9-113.1,169.9-113.1,273.1  c0,103.1,40.2,200.1,113.1,273.1c72.9,72.9,169.9,113.1,273.1,113.1s200.1-40.2,273.1-113.1C845.8,699.4,886,602.4,886,499.3  C886,396.1,845.8,299.1,772.9,226.2z M499.9,167.1c156.9,29.2,275.6,166.8,275.6,332.2c0,165.3-118.8,302.9-275.6,332.2  c108.9-70.4,181-192.9,181-332.2C680.9,359.9,608.8,237.5,499.9,167.1z"/><text x="0" y="1015" fill="#000000" font-size="5px" font-weight="bold" font-family="'Helvetica Neue', Helvetica, Arial-Unicode, Arial, Sans-serif">Created by Alvaro Cabrera</text><text x="0" y="1020" fill="#000000" font-size="5px" font-weight="bold" font-family="'Helvetica Neue', Helvetica, Arial-Unicode, Arial, Sans-serif">from the Noun Project</text></svg>